HIERARCHY
ROOT Hips
{
	OFFSET 0.000000 0.000000 0.000000
	CHANNELS 6 Xposition Yposition Zposition Zrotation Yrotation Xrotation 
	JOINT LHipJoint
	{
		OFFSET 0.000000 0.000000 0.000000
		CHANNELS 3 Zrotation Yrotation Xrotation
		JOINT LeftUpLeg
		{
			OFFSET 1.363060 -1.794630 0.839290
			CHANNELS 3 Zrotation Yrotation Xrotation
			JOINT LeftLeg
			{
				OFFSET 2.448110 -6.726130 0.000000
				CHANNELS 3 Zrotation Yrotation Xrotation
				JOINT LeftFoot
				{
					OFFSET 2.562200 -7.039590 0.000000
					CHANNELS 3 Zrotation Yrotation Xrotation
					JOINT LeftToeBase
					{
						OFFSET 0.157640 -0.433110 2.322550
						CHANNELS 3 Zrotation Yrotation Xrotation
						End Site
						{
							OFFSET 0.000000 0.000000 0.000000
						}
					}
				}
			}
		}
	}
	JOINT RHipJoint
	{
		OFFSET 0.000000 0.000000 0.000000
		CHANNELS 3 Zrotation Yrotation Xrotation
		JOINT RightUpLeg
		{
			OFFSET -1.305520 -1.794630 0.839290
			CHANNELS 3 Zrotation Yrotation Xrotation
			JOINT RightLeg
			{
				OFFSET -2.542530 -6.985550 0.000000
				CHANNELS 3 Zrotation Yrotation Xrotation
				JOINT RightFoot
				{
					OFFSET -2.568260 -7.056230 0.000000
					CHANNELS 3 Zrotation Yrotation Xrotation
					JOINT RightToeBase
					{
						OFFSET -0.164730 -0.452590 2.363150
						CHANNELS 3 Zrotation Yrotation Xrotation
						End Site
						{
							OFFSET 0.000000 0.000000 0.000000
						}
					}
				}
			}
		}
	}
	JOINT LowerBack
	{
		OFFSET 0.000000 0.000000 0.000000
		CHANNELS 3 Zrotation Yrotation Xrotation
		JOINT Spine
		{
			OFFSET 0.028270 2.035590 -0.193380
			CHANNELS 3 Zrotation Yrotation Xrotation
			JOINT Spine1
			{
				OFFSET 0.056720 2.048850 -0.042750
				CHANNELS 3 Zrotation Yrotation Xrotation
				JOINT Neck
				{
					OFFSET 0.000000 0.000000 0.000000
					CHANNELS 3 Zrotation Yrotation Xrotation
					JOINT Neck1
					{
						OFFSET -0.054170 1.746240 0.172020
						CHANNELS 3 Zrotation Yrotation Xrotation
						JOINT Head
						{
							OFFSET 0.104070 1.761360 -0.123970
							CHANNELS 3 Zrotation Yrotation Xrotation
							End Site
							{
								OFFSET 0.000000 0.000000 0.000000
							}
						}
					}
				}
				JOINT LeftShoulder
				{
					OFFSET 0.000000 0.000000 0.000000
					CHANNELS 3 Zrotation Yrotation Xrotation
					JOINT LeftArm
					{
						OFFSET 3.362410 1.200890 -0.311210
						CHANNELS 3 Zrotation Yrotation Xrotation
						JOINT LeftForeArm
						{
							OFFSET 4.983000 -0.000000 -0.000000
							CHANNELS 3 Zrotation Yrotation Xrotation
							JOINT LeftHand
							{
								OFFSET 3.483560 -0.000000 -0.000000
								CHANNELS 3 Zrotation Yrotation Xrotation
								JOINT LeftFingerBase
								{
									OFFSET 0.000000 0.000000 0.000000
									CHANNELS 3 Zrotation Yrotation Xrotation
									JOINT LeftHandIndex1
									{
										OFFSET 0.715260 -0.000000 -0.000000
										CHANNELS 3 Zrotation Yrotation Xrotation
										End Site
										{
											OFFSET 0.000000 0.000000 0.000000
										}
									}
								}
								JOINT LThumb
								{
									OFFSET 0.000000 0.000000 0.000000
									CHANNELS 3 Zrotation Yrotation Xrotation
									End Site
									{
										OFFSET 0.000000 0.000000 0.000000
									}
								}
							}
						}
					}
				}
				JOINT RightShoulder
				{
					OFFSET 0.000000 0.000000 0.000000
					CHANNELS 3 Zrotation Yrotation Xrotation
					JOINT RightArm
					{
						OFFSET -3.136600 1.374050 -0.404650
						CHANNELS 3 Zrotation Yrotation Xrotation
						JOINT RightForeArm
						{
							OFFSET -5.241900 -0.000000 -0.000000
							CHANNELS 3 Zrotation Yrotation Xrotation
							JOINT RightHand
							{
								OFFSET -3.444170 -0.000000 -0.000000
								CHANNELS 3 Zrotation Yrotation Xrotation
								JOINT RightFingerBase
								{
									OFFSET 0.000000 0.000000 0.000000
									CHANNELS 3 Zrotation Yrotation Xrotation
									JOINT RightHandIndex1
									{
										OFFSET -0.622530 -0.000000 -0.000000
										CHANNELS 3 Zrotation Yrotation Xrotation
										End Site
										{
											OFFSET 0.000000 0.000000 0.000000
										}
									}
								}
								JOINT RThumb
								{
									OFFSET 0.000000 0.000000 0.000000
									CHANNELS 3 Zrotation Yrotation Xrotation
									End Site
									{
										OFFSET 0.000000 0.000000 0.000000
									}
								}
							}
						}
					}
				}
			}
		}
	}
}
MOTION
Frames: 5
Frame Time: 0.008333
21.475091 19.064859 -3.502613 0.565413 -0.644421 8.610523 -16.889394 2.703283 2.770483 2.686642 0.239982 -26.212930 -22.389614 -28.409854 51.273059 -20.381656 40.909833 -22.568881 -0.121015 -2.051227 0.985543 14.374583 -2.856713 2.959904 -2.704875 2.556416 -26.056189 21.941119 25.397348 53.234780 20.153933 -37.064315 -30.469810 -0.104365 -0.351155 0.745137 2.160641 -0.452284 8.790272 0.782068 -0.335499 -3.893283 -2.020473 -0.430430 0.456946 -4.052357 -2.397870 -5.701581 0.514394 -2.619617 32.121426 -7.433514 -0.100061 8.490777 -11.676713 -10.235171 2.353009 -68.539926 -19.986311 42.364971 2.579274 -2.613398 1.740027 3.769406 -2.816601 1.627511 -1.350964 0.800751 -0.000000 0.000000 0.000000 0.000000 0.000000 0.000000 0.000000 13.692932 11.820380 5.667366 63.343506 17.819473 33.322428 -2.213304 -0.565967 2.602973 -7.400040 -5.404667 3.333135 2.562225 2.255284 -0.000000 0.000000 0.000000 0.000000 0.000000 0.000000 0.000000
21.472955 19.073059 -3.505500 0.535215 -0.281173 8.642037 -16.858367 2.779398 2.868443 2.806767 -0.208009 -26.078234 -21.179235 -27.775325 49.869309 -20.217895 40.050900 -21.512868 -0.147728 -2.125571 0.859537 14.470718 -2.988226 2.985563 -2.485892 1.691244 -26.201761 20.130338 24.731496 51.633427 20.028507 -34.995299 -28.950135 -0.122956 -0.411972 0.904556 2.260460 -0.595208 8.482732 0.795209 -0.504571 -3.898767 -2.234864 -0.579779 0.513540 -3.979797 -2.335721 -5.686303 0.496042 -2.669803 32.397596 -6.860253 -0.215460 9.910120 -11.388433 -10.466505 2.610046 -68.926517 -19.907000 43.432602 2.613284 0.177412 0.924138 3.396257 -1.367086 0.876823 -1.167080 0.472093 -0.000000 0.000000 0.000000 0.000000 0.000000 0.000000 0.000000 13.104827 11.905553 5.580634 64.481067 17.688366 35.926308 -2.999288 -1.232318 -0.378517 -8.936117 -6.472470 0.656424 3.199615 2.507505 -0.000000 0.000000 0.000000 0.000000 0.000000 0.000000 0.000000
21.471193 19.087828 -3.508617 0.508818 -0.089555 8.650828 -16.853684 2.867048 2.933600 2.745728 -0.131697 -25.920462 -20.314489 -27.765810 48.819206 -20.266108 39.474030 -20.661902 -0.138046 -2.067556 0.874860 14.560588 -3.069951 3.025190 -2.468848 1.339471 -26.108868 18.682911 24.100773 50.080353 19.912663 -33.616455 -27.651547 -0.116137 -0.389728 0.855357 2.295877 -0.626810 8.228186 0.795790 -0.548057 -3.896132 -2.427541 -0.604787 0.562708 -3.878666 -2.276450 -5.662853 0.617639 -2.817156 32.757719 -6.943123 -0.259916 10.739617 -11.104050 -10.613695 2.983186 -69.425086 -20.080346 45.561458 2.628322 2.812956 -0.471388 3.376309 -0.117151 -0.481504 -1.127833 0.206809 -0.000000 0.000000 0.000000 0.000000 0.000000 0.000000 0.000000 12.518997 12.030362 5.323336 65.547298 17.221165 38.255548 -3.680596 -1.670272 -3.319552 -10.184408 -7.523845 -1.979863 3.751114 2.723716 -0.000000 0.000000 0.000000 0.000000 0.000000 0.000000 0.000000
21.469653 19.103855 -3.507532 0.507676 -0.021981 8.632988 -16.862252 2.994251 3.033983 2.755195 -0.076079 -25.771334 -19.619782 -27.658684 47.812853 -20.243112 38.977832 -19.918433 -0.140807 -2.065111 0.851912 14.653104 -3.201427 3.078161 -2.616074 1.373314 -25.765702 15.557984 22.006635 46.821170 19.687302 -30.616687 -24.989573 -0.120157 -0.402929 0.789048 2.296331 -0.712242 7.969322 0.802855 -0.652625 -3.889539 -2.557472 -0.695013 0.634478 -3.826872 -2.163738 -5.688168 0.717878 -2.921038 33.424114 -7.322661 -0.258104 10.744288 -10.887811 -10.700995 3.175337 -69.860135 -19.964520 47.026580 2.474605 4.993279 -1.815546 3.467100 0.619476 -1.798105 -1.153824 0.100468 -0.000000 0.000000 0.000000 0.000000 0.000000 0.000000 0.000000 12.110298 11.966683 5.247287 66.460081 17.192770 40.683683 -3.733030 -1.988666 -6.084487 -9.272342 -8.217639 -4.761744 3.540981 2.824545 -0.000000 0.000000 0.000000 0.000000 0.000000 0.000000 0.000000
21.473180 19.121734 -3.507431 0.491412 0.038099 8.671588 -16.949156 3.160055 3.083318 2.618496 0.354325 -25.720184 -17.525367 -26.809881 45.662569 -20.109408 37.011215 -17.988254 -0.147082 -2.039830 0.780591 14.697893 -3.314188 3.148829 -2.756734 1.539123 -25.447095 12.639402 19.702935 43.680326 19.589120 -27.848003 -22.090975 -0.107567 -0.361595 0.611156 2.368789 -0.748591 7.685361 0.805838 -0.703142 -3.893690 -2.698453 -0.725411 0.556215 -3.804236 -2.204624 -5.556120 0.622140 -2.939018 33.652013 -7.113066 -0.296479 11.629494 -10.484084 -10.871323 3.324291 -70.453615 -19.746569 48.363326 2.102183 6.753050 -3.142982 4.157713 1.402573 -3.025123 -1.430963 -0.048229 -0.000000 0.000000 0.000000 0.000000 0.000000 0.000000 0.000000 11.534283 12.190016 4.959240 67.329061 16.691767 42.290141 -4.004085 -1.851473 -8.806933 -10.453285 -8.170465 -7.325577 4.096295 2.606494 0.000000 0.000000 0.000000 0.000000 0.000000 0.000000 0.000000
